<svg xmlns:xlink="http://www.w3.org/1999/xlink" xmlns="http://www.w3.org/2000/svg" width="61.898" height="43.469" viewBox="0 0 61.898 43.469" preserveAspectRatio="xMinYMin"><defs><style>.a{fill:#fff;}.b{fill:#fd7e69;stroke:#fd7e69;stroke-width:0.5px;}</style></defs><g transform="translate(-235.102 3116)"><g transform="translate(268.259 -3111.96)"><path class="a" d="M137.15,27.274a10.512,10.512,0,1,1,17.282,0l-1.034-.717a9.257,9.257,0,1,0-15.214,0Z" transform="translate(-134.36 -9.869)" fill="#FFFFFF"></path><path class="a" d="M153.586,27.485,151.04,25.72l.524-.74a8.333,8.333,0,1,0-13.706,0l.524.758L135.84,27.5l-.524-.754a11.431,11.431,0,1,1,18.79,0Z" transform="translate(-133.279 -8.802)" fill="#FFFFFF"></path></g><path class="b" d="M155.379,48.85a8.77,8.77,0,0,1-10.627,0l-1.563,1.567a10.971,10.971,0,0,0,13.757,0Z" transform="translate(129.624 -3142.403)" stroke="#FD7E69" fill="#FD7E69" stroke-width="0.5px"></path><g transform="translate(240.571 -3116)"><path class="a" d="M76.91,18.514a10.512,10.512,0,1,1,17.282,0L93.158,17.8a9.257,9.257,0,1,0-15.214,0Z" transform="translate(-74.12 -1.096)" fill="#FFFFFF"></path><path class="a" d="M93.341,18.709,90.8,16.949l.524-.758a8.338,8.338,0,1,0-13.706,0l.524.758L75.6,18.709l-.519-.754a11.431,11.431,0,1,1,18.79,0Z" transform="translate(-73.039 -0.012)" fill="#FFFFFF"></path></g><path class="b" d="M95.166,40.09a8.77,8.77,0,0,1-10.627,0L83,41.657a10.976,10.976,0,0,0,13.757,0Z" transform="translate(162.149 -3137.669)" stroke="#FD7E69" fill="#FD7E69" stroke-width="0.5px"></path><path class="a" d="M94.887,57.846c-1.08-1.724-3.3-4.6-5.975-4.6H69.276c-2.657,0-4.867,2.891-5.948,4.6a3.531,3.531,0,0,0-.188.34H64.6c.878-1.328,2.721-3.7,4.674-3.7H88.934c2.128,0,4.137,2.822,4.89,4.036a2.845,2.845,0,0,1,.427,1.508V66.3h1.259V60.03A4.1,4.1,0,0,0,94.887,57.846Z" transform="translate(172.881 -3143.781)" fill="#FFFFFF"></path><path class="a" d="M94.12,66.11H91.073V58.916a1.917,1.917,0,0,0-.285-1.02c-1.072-1.742-2.713-3.6-4.042-3.6H67.407c-1.067,0-2.5,1.232-3.843,3.291L63.3,58H59.91l.651-1.328a4.706,4.706,0,0,1,.226-.423c1.167-1.884,3.572-5.056,6.62-5.056H86.746c3.048,0,5.458,3.162,6.624,5.056h0a5.118,5.118,0,0,1,.751,2.666Z" transform="translate(175.192 -3142.667)" fill="#FFFFFF"></path><path class="a" d="M63.76,57.846c1.085-1.724,3.3-4.6,5.975-4.6H89.394c2.657,0,4.867,2.891,5.975,4.6.069.11.129.225.188.34H94.091c-.873-1.328-2.716-3.7-4.674-3.7h-19.7c-2.128,0-4.137,2.822-4.886,4.036a2.808,2.808,0,0,0-.432,1.512V66.3H63.14V60.03A4.1,4.1,0,0,1,63.76,57.846Z" transform="translate(172.881 -3143.781)" fill="#FFFFFF"></path><path class="a" d="M64.233,66.115H61.14V58.922a5.005,5.005,0,0,1,.763-2.666h0c1.181-1.889,3.631-5.056,6.729-5.056H88.29c3.1,0,5.548,3.162,6.729,5.056a4.718,4.718,0,0,1,.234.423L95.916,58H92.468l-.271-.414C90.818,55.53,89.375,54.3,88.29,54.3H68.632c-1.379,0-3.015,1.839-4.109,3.6a1.935,1.935,0,0,0-.29,1.02Z" transform="translate(173.962 -3142.673)" fill="#FFFFFF"></path><path class="a" d="M160,66.6c-1.08-1.724-3.3-4.6-5.952-4.6H134.395a4.3,4.3,0,0,0-1.995.533v1.443a3.525,3.525,0,0,1,1.995-.74h19.654c2.128,0,4.137,2.818,4.89,4.031a2.864,2.864,0,0,1,.432,1.512v6.279h1.255V68.78A4.086,4.086,0,0,0,160,66.6Z" transform="translate(135.455 -3148.509)" fill="#FFFFFF"></path><path class="a" d="M160.464,74.9h-3.093V67.7a1.912,1.912,0,0,0-.294-1.025c-1.089-1.737-2.758-3.6-4.109-3.6H133.314a2.652,2.652,0,0,0-1.462.57L130.4,64.67v-3.8l.5-.262A5.231,5.231,0,0,1,133.314,60h19.654c3.1,0,5.548,3.167,6.734,5.056h0a5,5,0,0,1,.763,2.666Z" transform="translate(136.536 -3147.428)" fill="#FFFFFF"></path></g></svg>