<svg xmlns:xlink="http://www.w3.org/1999/xlink" xmlns="http://www.w3.org/2000/svg" width="80.916" height="90.208" viewBox="0 0 80.916 90.208"><g data-name="Group 539"><g data-name="Path 1130"><path data-name="Path 1325" d="M19.448 40.736a25.608 25.608 0 1 1 42.094 0l-2.516-1.744a22.547 22.547 0 1 0-37.062 0z" fill="#5173F1" stroke="#4F6FF5"></path></g><g data-name="Path 1131"><path data-name="Path 1326" d="M40.494 51.76a25.522 25.522 0 0 1-17.065-6.524l2.042-2.281a22.519 22.519 0 0 0 29.954.081l2.03 2.292a25.523 25.523 0 0 1-16.961 6.432z" fill="#FD7E69" stroke="#FF7E65"></path></g><g data-name="Group 497"><path data-name="Path 1327" d="M80.416 89.708h-3.062v-15.3a6.913 6.913 0 0 0-1.05-3.678c-1.852-2.954-6.72-9.824-11.907-9.824H16.519c-5.184 0-10.049 6.864-11.9 9.815a6.949 6.949 0 0 0-1.056 3.7v15.285H.5V74.423a10.006 10.006 0 0 1 1.525-5.325c2.636-4.2 8.024-11.249 14.494-11.249H64.4c6.474 0 11.864 7.054 14.5 11.259a9.972 9.972 0 0 1 1.518 5.3z" fill="#5173F1" stroke="#4F6FF5"></path></g></g></svg>